<?xml version="1.0" encoding="UTF-8"?>
<!DOCTYPE svg PUBLIC "-//W3C//DTD SVG 1.1//EN" "http://www.w3.org/Graphics/SVG/1.1/DTD/svg11.dtd">
<svg xmlns="http://www.w3.org/2000/svg" style="background-color: rgb(255, 255, 255);" xmlns:xlink="http://www.w3.org/1999/xlink" version="1.1" width="451px" height="361px" viewBox="-0.5 -0.5 451 361"><defs/><g><path d="M 180 273.63 L 180 240 L 260 240 L 260 206.37" fill="none" stroke="#000000" stroke-miterlimit="10" pointer-events="stroke"/><path d="M 180 278.88 L 176.5 271.88 L 180 273.63 L 183.5 271.88 Z" fill="#000000" stroke="#000000" stroke-miterlimit="10" pointer-events="all"/><path d="M 260 201.12 L 263.5 208.12 L 260 206.37 L 256.5 208.12 Z" fill="#000000" stroke="#000000" stroke-miterlimit="10" pointer-events="all"/><path d="M 206.37 320 L 380 320 L 380 206.37" fill="none" stroke="#000000" stroke-miterlimit="10" pointer-events="stroke"/><path d="M 201.12 320 L 208.12 316.5 L 206.37 320 L 208.12 323.5 Z" fill="#000000" stroke="#000000" stroke-miterlimit="10" pointer-events="all"/><path d="M 380 201.12 L 383.5 208.12 L 380 206.37 L 376.5 208.12 Z" fill="#000000" stroke="#000000" stroke-miterlimit="10" pointer-events="all"/><rect x="160" y="280" width="40" height="80" fill="#f5f5f5" stroke="#666666" pointer-events="all"/><g fill="#333333" font-family="Helvetica" text-anchor="middle" font-size="12px"><text x="179.5" y="323.5">Phone</text></g><rect x="0" y="120" width="80" height="80" fill="#ffffff" stroke="#000000" pointer-events="all"/><g fill="#000000" font-family="Helvetica" text-anchor="middle" font-size="12px"><text x="39.5" y="163.5">QRCode</text></g><rect x="200" y="120" width="120" height="80" fill="#f5f5f5" stroke="#666666" pointer-events="all"/><g fill="#333333" font-family="Helvetica" text-anchor="middle" font-size="12px"><text x="259.5" y="163.5">SERVER </text></g><rect x="320" y="120" width="120" height="80" fill="#f5f5f5" stroke="#666666" pointer-events="all"/><g fill="#333333" font-family="Helvetica" text-anchor="middle" font-size="12px"><text x="379.5" y="163.5">SERVER</text></g><path d="M 380 86.37 L 380 120" fill="none" stroke="#000000" stroke-miterlimit="10" pointer-events="stroke"/><path d="M 380 81.12 L 383.5 88.12 L 380 86.37 L 376.5 88.12 Z" fill="#000000" stroke="#000000" stroke-miterlimit="10" pointer-events="all"/><rect x="320" y="0" width="120" height="80" fill="#dae8fc" stroke="#6c8ebf" pointer-events="all"/><g fill="#000000" font-family="Helvetica" text-anchor="middle" font-size="12px"><text x="379.5" y="43.5">Lightning Node</text></g><path d="M 155.5 275.5 L 80 200" fill="none" stroke="#000000" stroke-miterlimit="10" pointer-events="stroke"/><path d="M 159.21 279.21 L 151.78 276.73 L 155.5 275.5 L 156.73 271.78 Z" fill="#000000" stroke="#000000" stroke-miterlimit="10" pointer-events="all"/><rect x="245" y="300" width="100" height="20" fill="none" stroke="none" pointer-events="all"/><g fill="#000000" font-family="Helvetica" font-size="12px"><text x="246.5" y="313.5">Invoice + Secret</text></g><rect x="200" y="240" width="170" height="20" fill="none" stroke="none" pointer-events="all"/><g fill="#000000" font-family="Helvetica" font-size="12px"><text x="201.5" y="253.5">callback url + </text><text x="201.5" y="267.5">withdrawal info</text></g><rect x="190" y="220" width="40" height="20" fill="none" stroke="none" pointer-events="all"/><g fill="#000000" font-family="Helvetica" font-size="12px"><text x="191.5" y="233.5">Get</text></g><rect x="400" y="90" width="40" height="20" fill="none" stroke="none" pointer-events="all"/><g fill="#000000" font-family="Helvetica" text-anchor="middle" font-size="12px"><text x="419.5" y="103.5">Pay Invoice</text></g></g></svg>